# xmcd
#
# Track frame offsets:
#	150
#	12314
#	26106
#	38233
#	48887
#	60794
#	74870
#	86944
#	101763
#	111807
#	125480
#	138181
#	152187
#	165918
#	173648
#	187797
#	201599
#	210380
#
# Disc length: 2972 seconds
#
# Revision: 1
# Processed by: cddbd v1.5.2PL0 Copyright (c) Steve Scherf et al.
# Submitted via: audiograbber 1.83.01
#
DISCID=f50b9a12
DTITLE=Dolly Parton - Country Girl
DYEAR=1991
DGENRE=Country
TTITLE0=Jolene
TTITLE1=My Tennessee Mountain Home
TTITLE2=The Bargain Store
TTITLE3=Love Is Like A Butterfly
TTITLE4=Just The Two Of Us (With Porter Wagoner)
TTITLE5=I Will Always Love You
TTITLE6=Touch Your Woman
TTITLE7=The Seeker
TTITLE8=Travelling Man
TTITLE9=Daddy Come And Get Me
TTITLE10=My Blue Tears
TTITLE11=Coat Of Many Colors
TTITLE12=Joshua
TTITLE13=Washday Blues
TTITLE14=Mule Skinner Blues (Blue Yodel No. 8)
TTITLE15=Comin' For To Carry Me Home
TTITLE16=Afraid To Love Again (With Porter Wagoner)
TTITLE17=I Washed My Face In The Morning Dew (With Porter Wagoner)
EXTD=
EXTT0=
EXTT1=
EXTT2=
EXTT3=
EXTT4=
EXTT5=
EXTT6=
EXTT7=
EXTT8=
EXTT9=
EXTT10=
EXTT11=
EXTT12=
EXTT13=
EXTT14=
EXTT15=
EXTT16=
EXTT17=
PLAYORDER=
